<svg width="118" height="34" viewBox="0 0 118 34" fill="none" xmlns="http://www.w3.org/2000/svg">
<path fill-rule="evenodd" clip-rule="evenodd" d="M16.7859 9.63944C19.4478 9.63944 21.6056 7.48158 21.6056 4.81972C21.6056 2.15786 19.4478 0 16.7859 0C14.1241 0 11.9662 2.15786 11.9662 4.81972C11.9662 7.48158 14.1241 9.63944 16.7859 9.63944ZM16.7859 29.5831C21.8343 29.5831 25.9268 25.4906 25.9268 20.4423C25.9268 15.3939 21.8343 11.3014 16.7859 11.3014C11.7376 11.3014 7.64507 15.3939 7.64507 20.4423C7.64507 25.4906 11.7376 29.5831 16.7859 29.5831ZM9.63944 9.47324C9.63944 12.1351 7.48158 14.293 4.81972 14.293C2.15786 14.293 0 12.1351 0 9.47324C0 6.81138 2.15786 4.65352 4.81972 4.65352C7.48158 4.65352 9.63944 6.81138 9.63944 9.47324ZM28.7521 14.293C31.414 14.293 33.5718 12.1351 33.5718 9.47324C33.5718 6.81138 31.414 4.65352 28.7521 4.65352C26.0903 4.65352 23.9324 6.81138 23.9324 9.47324C23.9324 12.1351 26.0903 14.293 28.7521 14.293Z" fill="black"/>
<path d="M43.0547 15.1603V28.5624C43.0547 28.9879 42.7356 29.307 42.3101 29.307H39.1191C38.6936 29.307 38.3745 28.9879 38.3745 28.5624V18.0322H35.8217C34.439 18.0322 33.6732 18.7768 33.3753 19.9468L31.248 28.5624C31.1416 28.9879 30.8225 29.307 30.4183 29.307H27.2061C26.6743 29.307 26.3552 28.9666 26.4615 28.5624L28.5888 19.9468C29.4398 16.5431 31.5671 14.4157 35.8217 14.4157H42.3101C42.7356 14.4157 43.0547 14.7348 43.0547 15.1603ZM57.7965 28.5624L57.0519 26.6479H50.3509L49.6063 28.5624C49.4361 28.9879 49.0745 29.307 48.649 29.307H45.2453C44.8198 29.307 44.522 28.9879 44.7135 28.5624L50.67 15.1603C50.8614 14.7348 51.2018 14.4157 51.6273 14.4157H55.9883C56.4137 14.4157 56.7541 14.7136 56.9456 15.139L62.9021 28.5624C63.0935 28.9879 62.7957 29.307 62.3703 29.307H58.7538C58.3283 29.307 57.9667 28.9879 57.7965 28.5624ZM53.6482 18.8831L51.84 23.1378H55.5628L53.861 18.8831H53.6482ZM80.0978 15.1603V28.5624C80.0978 28.9879 79.7787 29.307 79.3533 29.307H76.1623C75.7368 29.307 75.4177 28.9879 75.4177 28.5624V18.0322H69.2485V28.5624C69.2485 28.9879 68.9294 29.307 68.5039 29.307H65.3129C64.8875 29.307 64.5684 28.9879 64.5684 28.5624V15.1603C64.5684 14.7348 64.8875 14.4157 65.3129 14.4157H79.3533C79.7787 14.4157 80.0978 14.7348 80.0978 15.1603ZM94.1357 21.4359V21.6486C94.1357 21.6486 95.6248 22.0741 97.0076 24.6269L99.1349 28.5624C99.3051 28.8815 99.1349 29.307 98.6031 29.307H95.3057C94.4548 29.307 94.157 28.9879 93.923 28.5624L91.7956 24.6269C91.4553 23.9887 91.0511 23.5632 89.881 23.5632H87.9664V28.5624C87.9664 28.9879 87.6473 29.307 87.2219 29.307H84.0309C83.6054 29.307 83.2863 28.9879 83.2863 28.5624V15.1603C83.2863 14.7348 83.6054 14.4157 84.0309 14.4157H87.2219C87.6473 14.4157 87.9664 14.7348 87.9664 15.1603V19.9468H89.5619C90.732 19.9468 91.1362 19.5213 91.4765 18.8831L93.4975 15.1603C93.7315 14.7348 94.0293 14.4157 94.8803 14.4157H98.1776C98.7094 14.4157 98.8796 14.8412 98.7094 15.1603L96.6885 18.8831C95.5397 21.0104 94.1357 21.4359 94.1357 21.4359ZM112.662 28.5624L111.918 26.6479H105.217L104.472 28.5624C104.302 28.9879 103.94 29.307 103.515 29.307H100.111C99.6857 29.307 99.3878 28.9879 99.5793 28.5624L105.536 15.1603C105.727 14.7348 106.068 14.4157 106.493 14.4157H110.854C111.28 14.4157 111.62 14.7136 111.811 15.139L117.768 28.5624C117.959 28.9879 117.662 29.307 117.236 29.307H113.62C113.194 29.307 112.833 28.9879 112.662 28.5624ZM108.514 18.8831L106.706 23.1378H110.429L108.727 18.8831H108.514Z" fill="black"/>
</svg>
